<svg xmlns="http://www.w3.org/2000/svg" xmlns:xlink="http://www.w3.org/1999/xlink" id="Layer_1" data-name="Layer 1" viewBox="0 0 523.64 360"><defs><style>      .cls-1 {        fill: url(#linear-gradient-2);      }      .cls-2 {        fill: #f9a61a;      }      .cls-3 {        fill: #1b2a56;      }      .cls-4 {        fill: url(#linear-gradient);      }      .cls-5 {        fill: #ad1f23;      }    </style><linearGradient id="linear-gradient" x1="371.41" y1="123.07" x2="250.44" y2="179.52" gradientUnits="userSpaceOnUse"><stop offset="0" stop-color="#f37421"></stop><stop offset="1" stop-color="#f9a61a"></stop></linearGradient><linearGradient id="linear-gradient-2" x1="103.05" y1="77.42" x2="328.19" y2="77.42" xlink:href="#linear-gradient"></linearGradient></defs><g><path class="cls-5" d="m270.95,179.41c-2.38-26.1-26.72-26.72-26.72-26.72,0,0-31.07-.13-39.23,0s-7.9,6.52-7.9,6.52c.12,6.38,6.13,7.18,7.04,7.27.07,0,.13,0,.19,0h37.26c.98,0,1.96.11,2.92.33,14.31,3.35,13.15,15.6,13.15,15.6.5,11.67-14.68,14.18-14.68,14.18h-62.15v39.73l16.24-27.06h49.17c2.15,0,4.29-.36,6.32-1.09,20.2-7.21,18.4-28.77,18.4-28.77Z"></path><path class="cls-4" d="m321.84,172.31h12.98s12.43-30.37,0-58.26h-12.98s13.53,28.44,0,58.26Z"></path><path class="cls-3" d="m318.39,185.15c-2.62,3.59-15.46,16.84-15.46,16.84h18.92c4.14-4.69,8.28-16.84,8.28-16.84h-11.74Z"></path><path class="cls-3" d="m288.43,216.77h18.64c5.66-3.18,11.05-12.29,11.05-12.29h-18.78l-10.91,12.29Z"></path><path class="cls-3" d="m272,232.37c21.4-3.04,30.93-13.53,30.93-13.53h-17.95l-12.98,13.53Z"></path><polygon class="cls-3" points="264.27 218.84 250.46 233.2 267.58 233.2 280.97 218.84 264.27 218.84"></polygon><path class="cls-3" d="m235.82,218.84l-8.28,8.56c4.56,3.73,19.05,5.8,19.05,5.8l12.84-14.36h-23.61Z"></path><path class="cls-3" d="m210.97,218.84c1.93,2.35,13.67,8.15,13.67,8.15l6.63-8.15h-20.3Z"></path><polygon class="cls-3" points="298.65 201.99 314.38 185.15 297.13 185.15 280.97 201.99 298.65 201.99"></polygon><polygon class="cls-3" points="266.61 216.77 284.15 216.77 295.19 204.48 278.63 204.48 266.61 216.77"></polygon><path class="cls-3" d="m274.35,204.48h-4.97c-10.91,9.94-17.26,12.29-17.26,12.29h11.46l10.77-12.29Z"></path><path class="cls-3" d="m293.12,185.15h-12.22s-4.13,12.44-8.91,16.84h6.21l14.91-16.84Z"></path><path class="cls-3" d="m203.19,210.97h-2.56c3.08,3.12,6.33,5.8,6.33,5.8h5.25c-2.71-1.29-6.06-3.59-9.02-5.8Z"></path><path class="cls-3" d="m320.13,136.79s.25-6.4-7.9-6.52c-8.16-.13-110.45,0-110.45,0,0,0-24.34.63-26.72,26.72,0,0-1.3,15.6,10.74,24.7,4.49,3.39,9.99,5.16,15.62,5.16h41.72c1.35,0,2.67-.47,3.67-1.38.7-.64,1.34-1.56,1.67-2.89.26-1.04.26-2.14.04-3.19-.42-2-1.77-5.21-6.08-5.21h-39.4s-15.18-2.51-14.68-14.18c0,0-.94-9.88,9.24-14.32,2.49-1.09,5.19-1.61,7.91-1.61h106.72c1.21,0,2.42-.22,3.54-.69,1.98-.83,4.3-2.64,4.38-6.59Z"></path><path class="cls-1" d="m300.76,70.87l8.47-33.32-14.36,29.82c-19.88-10.68-36.27-9.2-36.27-9.2l-3.31-58.17-3.5,57.8c-20.25.18-36.17,9.94-36.17,9.94l-24.21-26.51,18.78,29.42c-19.7,12.49-25.59,26.54-25.59,26.54l-35.35-9.76,30.93,15.83c-10.68,18.04-9.57,38.11-9.57,38.11l-67.56,3.87,67.38,3.13c-.05,2.18.08,4.34.33,6.46.78-6.01,2.73-11.26,5.79-15.62,1.99-2.84,4.44-5.28,7.3-7.29,2.55-16.19,9.32-27.54,9.32-27.54,23.2-35.07,61.58-33.69,61.58-33.69,38.66-1.1,59.92,28.99,59.92,28.99h13.53c-9.76-17.21-27.43-28.81-27.43-28.81Z"></path></g><g><g><path class="cls-5" d="m.34,271.66c.51,0,.93.08,1.35.08v-.08l15.49.08c15.57.25,23.24,9.09,23.24,17.93s-7.75,17.6-23.32,17.85h-5.47v23.82h-.34c-6.82,0-11.28-4.55-11.28-11.28v-48.41h.34Zm11.28,11.28v22.56h3.2c9.18,0,13.72-7.91,13.72-15.83s-4.55-15.91-13.72-15.91h-7.49c2.69,1.94,4.29,5.22,4.29,9.18Z"></path><path class="cls-5" d="m46.13,301.38c0-15.15,8.84-30.14,26.86-30.14s26.77,15.07,26.77,30.22-8.92,30.31-26.94,30.31-26.69-15.15-26.69-30.39Zm26.86,28.12c9.68,0,14.65-14.06,14.65-28.12s-4.88-28.03-14.82-28.03-14.48,14.14-14.48,28.2,4.88,27.95,14.65,27.95Z"></path><path class="cls-5" d="m103.38,271.66c5.98,0,11.11,3.87,12.8,9.51l9.68,32.66,8.42-27.28-4.8-14.9h2.53c5.89,0,11.11,3.79,12.88,9.51l9.93,31.4,9.51-30.98c1.94-6.15-.17-9.01-1.52-9.51v-.42h7.66l-18.61,60.45h-.08c-1.77,0-3.2-1.09-3.79-2.69l-12.21-38.05-12.46,40.75h-.17c-1.68,0-3.11-1.09-3.7-2.69l-18.52-57.75h2.44Z"></path><path class="cls-5" d="m175.7,319.9v-48.24c.17,0,.34.08.59,0h33.34v9.26h-.34c-.51-1.35-2.78-6.74-9.68-6.74h-16.33c2.44,2.02,3.79,5.14,3.79,8.92v17.01h5.64c6.9,0,9.18-2.69,9.77-4.13h.34v10.36h-.34c-.59-1.35-2.86-4.13-9.77-4.13h-5.64v26.69h13.47c6.9,0,9.18-5.39,9.68-6.82h.42v9.26h-24.5c-6.31-.42-10.44-4.88-10.44-11.45Z"></path><path class="cls-5" d="m217.62,271.66c.42,0,.76.08,1.18.08v-.08l15.66.08c29.8.51,29.38,27.19,7.07,32.41,2.86,1.01,5.39,2.95,7.16,5.81l13.55,21.38h-6.82c-4.13,0-8.33-2.36-10.52-5.89l-12.71-20.46h-3.28v26.35h-.34c-6.82,0-11.28-4.55-11.28-11.28v-48.41h.34Zm11.28,11.28v19.95h3.2c16.92,0,19.36-29.13,0-29.13h-7.49c2.69,2.02,4.29,5.22,4.29,9.18Z"></path><path class="cls-2" d="m303.16,329.5c5.3,0,11.95-2.53,11.95-9.6,0-12.88-28.62-16.84-28.62-34.35,0-10.27,9.93-15.24,19.36-15.24,9.93,0,15.07,5.64,16,10.78l.17,1.18c0,4.04-2.61,6.74-6.65,6.74-3.2,0-6.31-1.85-6.31-4.97,0-4.29,5.98-7.49,2.61-9.77-1.52-.67-3.2-1.01-4.97-1.01-5.22,0-10.19,2.36-10.19,9.18,0,13.72,29.38,16.08,29.38,34.26,0,12.04-13.89,15.83-22.39,15.83-13.13,0-18.94-8.25-18.94-14.65,0-4.46,3.2-6.57,6.31-6.57,3.28,0,6.48,2.1,6.48,5.89,0,4.21-7.58,5.64-3.87,9.34,2.27,1.68,5.72,2.95,9.68,2.95Z"></path><path class="cls-2" d="m331.69,301.38c0-15.15,8.84-30.14,26.86-30.14s26.77,15.07,26.77,30.22-8.92,30.31-26.94,30.31-26.69-15.15-26.69-30.39Zm26.86,28.12c9.68,0,14.65-14.06,14.65-28.12s-4.88-28.03-14.82-28.03-14.48,14.14-14.48,28.2,4.88,27.95,14.65,27.95Z"></path><path class="cls-2" d="m396.35,271.66c4.63,0,7.75,3.11,7.75,7.75v49.5h13.22c6.9,0,9.18-5.39,9.68-6.82h.42v9.26h-27.19c-4.63,0-7.75-3.11-7.75-7.75v-51.94h3.87Z"></path><path class="cls-2" d="m449.22,270.65h.59c1.43,0,2.69.93,3.11,2.27l20.54,58.43h-4.21c-4.88,0-9.18-3.11-10.69-7.75l-1.85-5.81h-19.95l-1.26,3.87c-1.68,5.72.25,8.84,1.6,9.34v.34h-7.83l19.95-60.7Zm-11.62,44.7h18.35l-9.09-28.12-9.26,28.12Z"></path><path class="cls-2" d="m479.02,271.66c.42,0,.76.08,1.18.08v-.08l15.66.08c29.8.51,29.38,27.19,7.07,32.41,2.86,1.01,5.39,2.95,7.16,5.81l13.55,21.38h-6.82c-4.13,0-8.33-2.36-10.52-5.89l-12.71-20.46h-3.28v26.35h-.34c-6.82,0-11.28-4.55-11.28-11.28v-48.41h.34Zm11.28,11.28v19.95h3.2c16.92,0,19.36-29.13,0-29.13h-7.49c2.69,2.02,4.29,5.22,4.29,9.18Z"></path></g><g><path d="m20.56,345.4h7.36c1.09,0,2.02.19,2.78.58.95.49,1.76,1.3,2.42,2.44.66,1.14,1,2.48,1,4.03,0,1.28-.2,2.44-.6,3.47-.3.79-.77,1.48-1.39,2.07-.63.59-1.39,1.03-2.29,1.33-.67.22-1.57.33-2.7.33h-6.59v-.72h1.35c.34,0,.58-.05.71-.16.13-.11.2-.28.2-.51v-11.47c0-.2-.07-.36-.21-.48-.14-.12-.34-.18-.59-.18h-1.45v-.72Zm5.16.72c-.29,0-.5.06-.64.18-.14.12-.21.31-.21.55v11.36c0,.23.08.41.24.52.16.12.43.18.82.18h1.21c1.08,0,2.03-.28,2.85-.84.53-.37.94-.9,1.21-1.57.38-.91.57-2.17.57-3.77,0-2.37-.41-4.11-1.24-5.22-.71-.93-1.77-1.4-3.2-1.4h-1.62Z"></path><path d="m38.49,345.4h11.28l.27,4.8h-.65c-.26-1.51-.66-2.57-1.22-3.18-.55-.6-1.28-.91-2.17-.91h-2.79c-.22,0-.39.06-.51.18-.12.12-.17.31-.17.56v5.07h1.22c.65,0,1.18-.23,1.59-.7.41-.47.63-1.19.66-2.16h.66v6.6h-.66c-.03-1.09-.25-1.87-.67-2.34-.41-.47-.97-.71-1.69-.71h-1.11v5.66c0,.21.07.36.21.47.14.11.37.16.69.16h2.2c2.39,0,3.77-1.53,4.13-4.58h.69l-.24,5.31h-11.74v-.72h.97c.38,0,.65-.07.8-.2.15-.13.23-.32.23-.57v-11.28c0-.25-.07-.44-.2-.56-.13-.12-.35-.18-.64-.18h-1.17v-.72Z"></path><path d="m62.53,346.48l.87-1.24h.7l.06,5.19h-.64c-.4-1.59-.99-2.75-1.77-3.49s-1.68-1.1-2.69-1.1c-.85,0-1.54.25-2.08.76-.54.51-.81,1.13-.81,1.86,0,.46.1.86.31,1.2.21.34.51.62.92.84.41.22,1.18.44,2.31.69,1.59.34,2.7.69,3.34,1.05.64.35,1.12.8,1.43,1.33.31.54.47,1.16.47,1.88,0,1.28-.43,2.35-1.3,3.19-.86.84-1.98,1.27-3.35,1.27-1.47,0-2.75-.47-3.83-1.43l-1.09,1.33h-.69v-5.52h.69c.27,1.52.87,2.72,1.81,3.6.94.88,1.99,1.32,3.17,1.32.95,0,1.73-.28,2.33-.84.6-.56.9-1.24.9-2.05,0-.46-.11-.86-.34-1.2-.22-.34-.58-.63-1.07-.87-.49-.23-1.45-.52-2.88-.85-1.57-.37-2.64-.79-3.22-1.25-.8-.65-1.2-1.58-1.2-2.78s.4-2.28,1.2-3.08c.8-.8,1.82-1.2,3.07-1.2.6,0,1.17.11,1.7.32.54.21,1.1.56,1.68,1.06Z"></path><path d="m68.54,345.4h6.57v.72h-1.13c-.5,0-.82.06-.95.19-.13.13-.2.39-.2.79v10.78c0,.43.06.7.17.81.15.15.43.22.84.22h1.26v.72h-6.57v-.72h1.24c.44,0,.72-.06.85-.19.13-.13.19-.41.19-.84v-10.78c0-.41-.06-.66-.17-.76-.18-.15-.51-.22-.99-.22h-1.12v-.72Z"></path><path d="m88.89,346.53l.79-1.42h.65l.36,5.68h-.63c-.48-1.63-1.05-2.82-1.7-3.55-.83-.93-1.79-1.39-2.87-1.39-.83,0-1.57.23-2.22.7-.65.47-1.16,1.17-1.51,2.11-.35.94-.52,2.25-.52,3.95s.17,2.94.52,3.87c.35.93.83,1.61,1.45,2.05.62.44,1.34.66,2.16.66,1.12,0,1.99-.31,2.6-.94.61-.63.92-1.44.92-2.44v-1.34c0-.21-.08-.38-.25-.49s-.43-.17-.8-.17h-1.2v-.67h5.97v.67h-.81c-.36,0-.62.06-.77.19-.15.13-.23.31-.23.54v5.44h-.64c-.23-.85-.47-1.66-.72-2.44-.48.79-1.05,1.38-1.72,1.78s-1.42.59-2.26.59c-1.2,0-2.31-.31-3.34-.92-1.02-.62-1.83-1.48-2.43-2.6-.59-1.12-.89-2.39-.89-3.8s.3-2.69.9-3.81c.6-1.12,1.41-2.02,2.45-2.68,1.04-.66,2.08-.99,3.14-.99.6,0,1.18.1,1.73.31.55.2,1.17.58,1.86,1.12Z"></path><path d="m95.93,345.4h3.4l8.59,11.19v-8.1c0-.82-.19-1.42-.56-1.81-.34-.36-.85-.55-1.52-.56v-.72h4.99v.72c-.51,0-.89.07-1.14.21-.25.14-.47.4-.66.77-.19.37-.28.78-.28,1.22v11.31h-.91l-8.89-11.65v8.59c0,.78.2,1.36.59,1.74.39.38,1,.58,1.82.59v.72h-5.43v-.72c.68-.03,1.22-.25,1.62-.67.4-.42.6-.93.6-1.54v-9.64l-.17-.19c-.32-.35-.55-.56-.68-.62-.19-.09-.43-.13-.72-.13h-.64v-.72Z"></path><path d="m113.89,345.4h6.57v.72h-1.13c-.5,0-.82.06-.95.19-.13.13-.2.39-.2.79v10.78c0,.43.06.7.17.81.15.15.43.22.84.22h1.26v.72h-6.57v-.72h1.24c.44,0,.72-.06.85-.19.13-.13.19-.41.19-.84v-10.78c0-.41-.06-.66-.17-.76-.18-.15-.51-.22-.99-.22h-1.12v-.72Z"></path><path d="m123.97,345.4h3.4l8.59,11.19v-8.1c0-.82-.19-1.42-.56-1.81-.34-.36-.85-.55-1.52-.56v-.72h4.99v.72c-.51,0-.89.07-1.14.21-.25.14-.47.4-.66.77-.19.37-.28.78-.28,1.22v11.31h-.91l-8.89-11.65v8.59c0,.78.2,1.36.59,1.74.39.38,1,.58,1.82.59v.72h-5.43v-.72c.68-.03,1.22-.25,1.62-.67.4-.42.6-.93.6-1.54v-9.64l-.17-.19c-.32-.35-.55-.56-.68-.62-.19-.09-.43-.13-.72-.13h-.64v-.72Z"></path><path d="m152.29,346.53l.79-1.42h.65l.36,5.68h-.63c-.48-1.63-1.05-2.82-1.7-3.55-.83-.93-1.79-1.39-2.87-1.39-.83,0-1.57.23-2.22.7-.65.47-1.16,1.17-1.51,2.11-.35.94-.52,2.25-.52,3.95s.17,2.94.52,3.87c.35.93.83,1.61,1.45,2.05.62.44,1.34.66,2.16.66,1.12,0,1.99-.31,2.6-.94.61-.63.92-1.44.92-2.44v-1.34c0-.21-.08-.38-.25-.49s-.43-.17-.8-.17h-1.2v-.67h5.97v.67h-.81c-.36,0-.62.06-.77.19-.15.13-.23.31-.23.54v5.44h-.64c-.23-.85-.47-1.66-.72-2.44-.48.79-1.05,1.38-1.72,1.78s-1.42.59-2.26.59c-1.2,0-2.31-.31-3.34-.92-1.02-.62-1.83-1.48-2.43-2.6-.59-1.12-.89-2.39-.89-3.8s.3-2.69.9-3.81c.6-1.12,1.41-2.02,2.45-2.68,1.04-.66,2.08-.99,3.14-.99.6,0,1.18.1,1.73.31.55.2,1.17.58,1.86,1.12Z"></path><path d="m171.77,345.1h.64l5.11,13.03c.21.53.63.79,1.26.79h.44v.72h-5.68v-.72h.45c.59,0,1.01-.06,1.25-.19.17-.09.25-.23.25-.41,0-.11-.02-.22-.07-.35l-1.18-3.02h-5.63l-.66,1.73c-.17.46-.26.83-.26,1.1,0,.31.15.58.44.81.29.22.72.34,1.28.34h.48v.72h-5.16v-.72c.55,0,.99-.12,1.31-.36.32-.24.62-.7.89-1.37l4.84-12.08Zm-.28,2.74l-2.56,6.35h5.03l-2.47-6.35Z"></path><path d="m196.57,346.48l.87-1.24h.7l.06,5.19h-.64c-.4-1.59-.99-2.75-1.77-3.49s-1.68-1.1-2.69-1.1c-.85,0-1.54.25-2.08.76-.54.51-.81,1.13-.81,1.86,0,.46.1.86.31,1.2.21.34.51.62.92.84.41.22,1.18.44,2.31.69,1.59.34,2.7.69,3.34,1.05.64.35,1.12.8,1.43,1.33.31.54.47,1.16.47,1.88,0,1.28-.43,2.35-1.3,3.19-.86.84-1.98,1.27-3.35,1.27-1.47,0-2.75-.47-3.83-1.43l-1.09,1.33h-.69v-5.52h.69c.27,1.52.87,2.72,1.81,3.6.94.88,1.99,1.32,3.17,1.32.95,0,1.73-.28,2.33-.84.6-.56.9-1.24.9-2.05,0-.46-.11-.86-.34-1.2-.22-.34-.58-.63-1.07-.87-.49-.23-1.45-.52-2.88-.85-1.57-.37-2.64-.79-3.22-1.25-.8-.65-1.2-1.58-1.2-2.78s.4-2.28,1.2-3.08c.8-.8,1.82-1.2,3.07-1.2.6,0,1.17.11,1.7.32.54.21,1.1.56,1.68,1.06Z"></path><path d="m202.37,345.4h6.58v.72h-1.32c-.35,0-.6.06-.74.17-.14.12-.21.29-.21.53v8.04c0,.84.07,1.48.22,1.91.22.64.62,1.14,1.2,1.52.58.38,1.34.57,2.27.57,1.3,0,2.28-.34,2.96-1.01.68-.67,1.02-1.57,1.02-2.69v-6.54c0-.58-.04-1.02-.12-1.31s-.2-.53-.35-.7c-.15-.17-.34-.29-.57-.37-.23-.08-.62-.12-1.16-.12v-.72h5.38v.72h-.39c-.6,0-1.05.16-1.35.49-.3.32-.44.79-.44,1.41v7c0,1.53-.44,2.7-1.31,3.51-.98.92-2.29,1.38-3.92,1.38-1.41,0-2.52-.2-3.33-.6s-1.4-.98-1.76-1.73c-.28-.57-.41-1.29-.41-2.16v-8.6c0-.22-.08-.39-.23-.52-.15-.13-.38-.19-.68-.19h-1.35v-.72Z"></path><path d="m229,346.48l.87-1.24h.7l.06,5.19h-.64c-.4-1.59-.99-2.75-1.77-3.49s-1.68-1.1-2.69-1.1c-.85,0-1.54.25-2.08.76-.54.51-.81,1.13-.81,1.86,0,.46.1.86.31,1.2.21.34.51.62.92.84.41.22,1.18.44,2.31.69,1.59.34,2.7.69,3.34,1.05.64.35,1.12.8,1.43,1.33.31.54.47,1.16.47,1.88,0,1.28-.43,2.35-1.3,3.19-.86.84-1.98,1.27-3.35,1.27-1.47,0-2.75-.47-3.83-1.43l-1.09,1.33h-.69v-5.52h.69c.27,1.52.87,2.72,1.81,3.6.94.88,1.99,1.32,3.17,1.32.95,0,1.73-.28,2.33-.84.6-.56.9-1.24.9-2.05,0-.46-.11-.86-.34-1.2-.22-.34-.58-.63-1.07-.87-.49-.23-1.45-.52-2.88-.85-1.57-.37-2.64-.79-3.22-1.25-.8-.65-1.2-1.58-1.2-2.78s.4-2.28,1.2-3.08c.8-.8,1.82-1.2,3.07-1.2.6,0,1.17.11,1.7.32.54.21,1.1.56,1.68,1.06Z"></path><path d="m235.15,345.4h11.56l.28,5.38h-.66c-.44-3.16-1.58-4.75-3.44-4.75-.37,0-.63.06-.77.19-.14.13-.21.34-.21.64v11.38c0,.23.07.4.2.51.13.11.36.16.66.16h1.43v.72h-6.61v-.72h1.64c.22,0,.39-.05.5-.16.12-.11.17-.25.17-.43v-11.54c0-.24-.07-.43-.22-.55-.15-.13-.39-.19-.71-.19-.93,0-1.71.44-2.33,1.32-.51.73-.88,1.87-1.11,3.43h-.7l.31-5.38Z"></path><path d="m255.21,345.1h.64l5.11,13.03c.21.53.63.79,1.26.79h.44v.72h-5.68v-.72h.45c.59,0,1.01-.06,1.25-.19.17-.09.25-.23.25-.41,0-.11-.02-.22-.07-.35l-1.18-3.02h-5.63l-.66,1.73c-.17.46-.26.83-.26,1.1,0,.31.15.58.44.81.29.22.72.34,1.28.34h.48v.72h-5.16v-.72c.55,0,.99-.12,1.31-.36.32-.24.62-.7.89-1.37l4.84-12.08Zm-.28,2.74l-2.56,6.35h5.03l-2.47-6.35Z"></path><path d="m265.26,345.4h6.57v.72h-1.13c-.5,0-.82.06-.95.19-.13.13-.2.39-.2.79v10.78c0,.43.06.7.17.81.15.15.43.22.84.22h1.26v.72h-6.57v-.72h1.24c.44,0,.72-.06.85-.19.13-.13.19-.41.19-.84v-10.78c0-.41-.06-.66-.17-.76-.18-.15-.51-.22-.99-.22h-1.12v-.72Z"></path><path d="m275.34,345.4h3.4l8.59,11.19v-8.1c0-.82-.19-1.42-.56-1.81-.34-.36-.85-.55-1.52-.56v-.72h4.99v.72c-.51,0-.89.07-1.14.21-.25.14-.47.4-.66.77-.19.37-.28.78-.28,1.22v11.31h-.91l-8.89-11.65v8.59c0,.78.2,1.36.59,1.74.39.38,1,.58,1.82.59v.72h-5.43v-.72c.68-.03,1.22-.25,1.62-.67.4-.42.6-.93.6-1.54v-9.64l-.17-.19c-.32-.35-.55-.56-.68-.62-.19-.09-.43-.13-.72-.13h-.64v-.72Z"></path><path d="m299.46,345.1h.64l5.11,13.03c.21.53.63.79,1.26.79h.44v.72h-5.68v-.72h.45c.59,0,1.01-.06,1.25-.19.17-.09.25-.23.25-.41,0-.11-.02-.22-.07-.35l-1.18-3.02h-5.63l-.66,1.73c-.17.46-.26.83-.26,1.1,0,.31.15.58.44.81.29.22.72.34,1.28.34h.48v.72h-5.16v-.72c.55,0,.99-.12,1.31-.36.32-.24.62-.7.89-1.37l4.84-12.08Zm-.28,2.74l-2.56,6.35h5.03l-2.47-6.35Z"></path><path d="m309.72,345.4h7.42c1.46,0,2.57.32,3.35.96.77.64,1.16,1.45,1.16,2.41,0,.81-.27,1.49-.81,2.06-.54.56-1.35,1.01-2.44,1.34,1.34.28,2.35.73,3.02,1.33s1.01,1.37,1.01,2.3c0,.71-.19,1.33-.57,1.88-.38.55-1.02,1.01-1.91,1.39-.89.38-1.9.57-3.03.57h-7.2v-.72h1.17c.35,0,.61-.06.78-.17.16-.12.25-.25.25-.39v-11.41c0-.27-.08-.47-.24-.61-.16-.14-.39-.21-.7-.21h-1.25v-.72Zm4.26,6.54h2.7c.83,0,1.49-.24,1.98-.73.49-.49.74-1.28.74-2.39,0-.69-.12-1.22-.35-1.61-.23-.38-.57-.66-1.02-.84-.45-.18-1.22-.26-2.32-.26-.78,0-1.26.06-1.44.17-.19.11-.28.31-.28.59v5.08Zm0,.72v5.49c0,.26.08.45.23.58.15.13.42.19.81.19h1.72c1.14,0,1.99-.25,2.53-.76.55-.5.82-1.29.82-2.35,0-.98-.28-1.74-.85-2.31-.57-.56-1.34-.84-2.34-.84h-2.93Z"></path><path d="m325.61,345.4h6.61v.72h-1.58c-.25,0-.43.07-.55.2-.12.13-.18.34-.18.62v11.24c0,.27.08.46.23.57.15.11.45.17.91.17h2c1.06,0,1.93-.35,2.61-1.06.68-.71,1.17-1.94,1.48-3.69h.67l-.33,5.48h-11.86v-.72h1.17c.4,0,.68-.08.84-.23.16-.15.24-.39.24-.73v-11.12c0-.24-.07-.42-.2-.54-.13-.12-.33-.18-.6-.18h-1.44v-.72Z"></path><path d="m341.41,345.4h11.28l.27,4.8h-.65c-.26-1.51-.66-2.57-1.22-3.18-.55-.6-1.28-.91-2.17-.91h-2.79c-.22,0-.39.06-.51.18-.12.12-.17.31-.17.56v5.07h1.22c.65,0,1.18-.23,1.59-.7.41-.47.63-1.19.66-2.16h.66v6.6h-.66c-.03-1.09-.25-1.87-.67-2.34-.41-.47-.97-.71-1.69-.71h-1.11v5.66c0,.21.07.36.21.47.14.11.37.16.69.16h2.2c2.39,0,3.77-1.53,4.13-4.58h.69l-.24,5.31h-11.74v-.72h.97c.38,0,.65-.07.8-.2.15-.13.23-.32.23-.57v-11.28c0-.25-.07-.44-.2-.56-.13-.12-.35-.18-.64-.18h-1.17v-.72Z"></path><path d="m364.65,345.4h11.56l.28,5.38h-.66c-.44-3.16-1.58-4.75-3.44-4.75-.37,0-.63.06-.77.19-.14.13-.21.34-.21.64v11.38c0,.23.07.4.2.51.13.11.36.16.66.16h1.43v.72h-6.61v-.72h1.64c.22,0,.39-.05.5-.16.12-.11.17-.25.17-.43v-11.54c0-.24-.07-.43-.22-.55-.15-.13-.39-.19-.71-.19-.93,0-1.71.44-2.33,1.32-.51.73-.88,1.87-1.11,3.43h-.7l.31-5.38Z"></path><path d="m386.46,345.1c1.2,0,2.33.32,3.37.95,1.05.63,1.87,1.51,2.46,2.65.59,1.13.89,2.41.89,3.83s-.3,2.7-.9,3.84c-.6,1.14-1.42,2.03-2.46,2.67-1.04.64-2.15.96-3.32.96s-2.21-.31-3.22-.94c-1-.63-1.81-1.52-2.41-2.69-.61-1.17-.91-2.46-.91-3.88s.29-2.66.88-3.79c.59-1.13,1.39-2.01,2.41-2.65,1.02-.64,2.08-.96,3.19-.96Zm.15.74c-1.25,0-2.27.52-3.04,1.56-.78,1.04-1.17,2.73-1.17,5.08,0,2.55.4,4.31,1.19,5.29.8.98,1.78,1.46,2.96,1.46.82,0,1.54-.22,2.17-.66.62-.44,1.12-1.15,1.49-2.11.37-.96.55-2.23.55-3.79,0-1.71-.17-3.04-.52-4-.35-.96-.84-1.67-1.48-2.13-.64-.46-1.36-.69-2.15-.69Z"></path><path d="m396.55,345.4h4.74l4.26,11.25,3.92-11.25h4.85v.72h-1.18c-.42,0-.7.06-.84.18-.14.12-.22.33-.22.64v11.28c0,.22.09.4.26.52.17.12.47.18.9.18h1.09v.72h-6.52v-.72h1.22c.35,0,.61-.07.77-.2.17-.13.25-.3.25-.51v-12.09l-4.71,13.52h-.65l-5.07-13.46v10.35c0,.62.08,1.08.23,1.38.15.3.37.54.66.7.29.16.76.26,1.42.3v.72h-5.37v-.72c.88-.06,1.48-.25,1.79-.57.31-.32.47-.89.47-1.7v-9.82c0-.24-.07-.42-.22-.53-.15-.11-.42-.17-.83-.17h-1.21v-.72Z"></path><path d="m424.35,345.1c1.2,0,2.33.32,3.37.95,1.05.63,1.87,1.51,2.46,2.65.59,1.13.89,2.41.89,3.83s-.3,2.7-.9,3.84c-.6,1.14-1.42,2.03-2.46,2.67-1.04.64-2.15.96-3.32.96s-2.21-.31-3.22-.94c-1-.63-1.81-1.52-2.41-2.69-.61-1.17-.91-2.46-.91-3.88s.29-2.66.88-3.79c.59-1.13,1.39-2.01,2.41-2.65,1.02-.64,2.08-.96,3.19-.96Zm.15.74c-1.25,0-2.27.52-3.04,1.56-.78,1.04-1.17,2.73-1.17,5.08,0,2.55.4,4.31,1.19,5.29.8.98,1.78,1.46,2.96,1.46.82,0,1.54-.22,2.17-.66.62-.44,1.12-1.15,1.49-2.11.37-.96.55-2.23.55-3.79,0-1.71-.17-3.04-.52-4-.35-.96-.84-1.67-1.48-2.13-.64-.46-1.36-.69-2.15-.69Z"></path><path d="m434.62,345.4h7.36c1.42,0,2.53.32,3.32.97.79.65,1.18,1.5,1.18,2.55,0,.63-.16,1.19-.47,1.68s-.76.88-1.35,1.17c-.59.29-1.51.5-2.77.63.92.25,1.55.5,1.89.74.35.24.62.55.83.93.21.38.45,1.16.72,2.33.19.84.4,1.42.62,1.72.17.24.35.36.54.36s.38-.15.55-.44c.17-.29.27-.81.31-1.55h.65c-.12,2.18-.93,3.27-2.42,3.27-.47,0-.87-.12-1.22-.36-.34-.24-.6-.59-.78-1.05-.13-.35-.29-1.25-.45-2.72-.1-.85-.25-1.46-.46-1.82-.21-.36-.53-.65-.98-.87-.44-.22-.97-.33-1.59-.33h-1.17v5.59c0,.24.06.4.18.5.15.12.39.18.72.18h1.37v.72h-6.61v-.72h1.4c.31,0,.53-.06.68-.18.14-.12.22-.29.22-.5v-11.38c0-.24-.07-.43-.22-.55-.15-.12-.37-.18-.67-.18h-1.4v-.72Zm4.34,6.55h1.68c1.13,0,2.01-.21,2.65-.64.64-.43.96-1.18.96-2.27,0-.75-.12-1.34-.36-1.78s-.56-.73-.95-.89c-.39-.16-1.16-.24-2.31-.24-.76,0-1.23.05-1.41.16-.18.11-.27.29-.27.54v5.12Z"></path><path d="m450.83,345.4h7.36c1.42,0,2.53.32,3.32.97.79.65,1.18,1.5,1.18,2.55,0,.63-.16,1.19-.47,1.68s-.76.88-1.35,1.17c-.59.29-1.51.5-2.77.63.92.25,1.55.5,1.89.74.35.24.62.55.83.93.21.38.45,1.16.72,2.33.19.84.4,1.42.62,1.72.17.24.35.36.54.36s.38-.15.55-.44c.17-.29.27-.81.31-1.55h.65c-.12,2.18-.93,3.27-2.42,3.27-.47,0-.87-.12-1.22-.36-.34-.24-.6-.59-.78-1.05-.13-.35-.29-1.25-.45-2.72-.1-.85-.25-1.46-.46-1.82-.21-.36-.53-.65-.98-.87-.44-.22-.97-.33-1.59-.33h-1.17v5.59c0,.24.06.4.18.5.15.12.39.18.72.18h1.37v.72h-6.61v-.72h1.4c.31,0,.53-.06.68-.18.14-.12.22-.29.22-.5v-11.38c0-.24-.07-.43-.22-.55-.15-.12-.37-.18-.67-.18h-1.4v-.72Zm4.34,6.55h1.68c1.13,0,2.01-.21,2.65-.64.64-.43.96-1.18.96-2.27,0-.75-.12-1.34-.36-1.78s-.56-.73-.95-.89c-.39-.16-1.16-.24-2.31-.24-.76,0-1.23.05-1.41.16-.18.11-.27.29-.27.54v5.12Z"></path><path d="m474.09,345.1c1.2,0,2.33.32,3.37.95,1.05.63,1.87,1.51,2.46,2.65.59,1.13.89,2.41.89,3.83s-.3,2.7-.9,3.84c-.6,1.14-1.42,2.03-2.46,2.67-1.04.64-2.15.96-3.32.96s-2.21-.31-3.22-.94c-1-.63-1.81-1.52-2.41-2.69-.61-1.17-.91-2.46-.91-3.88s.29-2.66.88-3.79c.59-1.13,1.39-2.01,2.41-2.65,1.02-.64,2.08-.96,3.19-.96Zm.15.74c-1.25,0-2.27.52-3.04,1.56-.78,1.04-1.17,2.73-1.17,5.08,0,2.55.4,4.31,1.19,5.29.8.98,1.78,1.46,2.96,1.46.82,0,1.54-.22,2.17-.66.62-.44,1.12-1.15,1.49-2.11.37-.96.55-2.23.55-3.79,0-1.71-.17-3.04-.52-4-.35-.96-.84-1.67-1.48-2.13-.64-.46-1.36-.69-2.15-.69Z"></path><path d="m484.19,345.4h4.76v.72h-.34c-.5,0-.82.04-.96.12-.14.08-.21.2-.21.37,0,.12.05.3.14.55l.06.18,2.9,9.04,2.54-8.35c-.3-.95-.52-1.5-.68-1.66-.16-.16-.47-.24-.94-.24h-.86v-.72h5.94v.72h-.62c-.54,0-.89.04-1.05.13-.16.09-.24.22-.24.39,0,.13.02.26.06.38l2.95,9.36,2.43-8.1c.1-.31.14-.62.14-.91,0-.43-.1-.75-.29-.95-.2-.2-.49-.3-.88-.3h-.44v-.72h4.47v.72c-.39.05-.7.15-.93.28-.23.14-.43.34-.6.59-.17.26-.34.68-.52,1.28l-3.51,11.7h-.69l-3.28-10.47-3.13,10.47h-.72l-4.01-12.64c-.16-.49-.34-.82-.54-.98-.2-.16-.53-.24-.97-.24v-.72Z"></path></g></g></svg>